<?xml version="1.0" encoding="utf-8"?>
<!-- Generator: Adobe Illustrator 19.2.1, SVG Export Plug-In . SVG Version: 6.00 Build 0)  -->
<svg version="1.1" id="Layer_1" xmlns="http://www.w3.org/2000/svg" xmlns:xlink="http://www.w3.org/1999/xlink" x="0px" y="0px"
	 viewBox="0 0 116 100.9" style="enable-background:new 0 0 116 100.9;" xml:space="preserve">
<g>
	<path d="M-172.8,24.7h2v7.5c0.9-1.5,2.1-2.2,3.7-2.2c1.2,0,2.3,0.5,3.3,1.5c0.9,1,1.4,2.2,1.4,3.6s-0.5,2.6-1.4,3.6s-2,1.5-3.2,1.5
		c-0.8,0-1.5-0.2-2.2-0.6s-1.2-1-1.6-1.7v2h-2V24.7z M-164.6,35c0-0.9-0.3-1.6-0.9-2.3s-1.4-0.9-2.3-0.9c-0.9,0-1.6,0.3-2.3,1
		s-1,1.4-1,2.3c0,0.9,0.3,1.7,1,2.3s1.4,0.9,2.3,0.9c0.9,0,1.6-0.3,2.2-0.9S-164.6,35.9-164.6,35z"/>
	<path d="M-159.7,30.2h2v9.7h-2V30.2z"/>
	<path d="M-154.8,24.7h2v9.8l4-4.2h2.6l-4.2,4.5l4.2,5.2h-2.5l-4.2-5.1v5.1h-2V24.7z"/>
	<path d="M-135,35.4h-8.2c0.2,1,0.6,1.7,1.2,2.2s1.3,0.7,2.1,0.7c1.2,0,2.1-0.5,2.9-1.4l1.5,1.1c-1.1,1.4-2.6,2.2-4.5,2.2
		c-1.4,0-2.6-0.5-3.6-1.5s-1.5-2.2-1.5-3.7c0-1.4,0.5-2.6,1.5-3.6c1-1,2.2-1.5,3.6-1.5c1.4,0,2.6,0.5,3.6,1.5
		C-135.4,32.5-134.9,33.8-135,35.4z M-143,33.8h5.9c-0.7-1.3-1.6-2-2.9-2C-141.4,31.8-142.4,32.5-143,33.8z"/>
</g>
<g>
	<path d="M89.3,40.4c-0.2,0-0.4,0-0.6,0l-4.9-23.2c-0.3-1.3-1.5-2.3-2.8-2.3h-5.2c-1.6,0-2.9,1.3-2.9,2.9c0,1.6,1.3,2.9,2.9,2.9h2.9
		L81,32.3H30.5c-1.3,0-2.4,0.8-2.8,2.1l-1.9,6.2c-10.5,1.1-18.7,10-18.7,20.8c0,11.5,9.4,20.9,20.9,20.9c10.9,0,19.9-8.4,20.8-19
		l21-9.7c-1,2.4-1.5,5-1.5,7.8c0,11.5,9.4,20.9,20.9,20.9c11.5,0,20.9-9.4,20.9-20.9C110.1,49.8,100.8,40.4,89.3,40.4L89.3,40.4z
		 M82.2,38l0.7,3.1L48.5,57c-1.7-8.3-8.4-14.7-16.7-16.3l0.8-2.7H82.2z M28.1,76.4c-8.3,0-15.1-6.8-15.1-15.1
		c0-8.3,6.8-15.1,15.1-15.1c8.3,0,15.1,6.8,15.1,15.1C43.2,69.7,36.4,76.4,28.1,76.4L28.1,76.4z M89.3,76.4
		c-8.3,0-15.1-6.8-15.1-15.1c0-8.3,6.8-15.1,15.1-15.1c8.3,0,15.1,6.8,15.1,15.1C104.4,69.7,97.6,76.4,89.3,76.4L89.3,76.4z
		 M89.3,76.4"/>
	<path d="M36.9,23.3h-9.1c-1.6,0-2.9,1.3-2.9,2.9c0,1.6,1.3,2.9,2.9,2.9h9.1c1.6,0,2.9-1.3,2.9-2.9C39.8,24.6,38.5,23.3,36.9,23.3
		L36.9,23.3z M36.9,23.3"/>
</g>
</svg>
