<?xml version="1.0" encoding="utf-8"?>
<!-- Generator: Adobe Illustrator 19.2.1, SVG Export Plug-In . SVG Version: 6.00 Build 0)  -->
<svg version="1.1" id="Layer_1" xmlns="http://www.w3.org/2000/svg" xmlns:xlink="http://www.w3.org/1999/xlink" x="0px" y="0px"
	 viewBox="0 0 70 70" style="enable-background:new 0 0 70 70;" xml:space="preserve">
<g>
	<path d="M-196.5,11.1h2v7.5c0.9-1.5,2.1-2.2,3.7-2.2c1.2,0,2.3,0.5,3.3,1.5s1.4,2.2,1.4,3.6s-0.5,2.6-1.4,3.6s-2,1.5-3.2,1.5
		c-0.8,0-1.5-0.2-2.2-0.6s-1.2-1-1.6-1.7v2h-2V11.1z M-188.3,21.4c0-0.9-0.3-1.6-0.9-2.3s-1.4-0.9-2.3-0.9c-0.9,0-1.6,0.3-2.3,1
		s-1,1.4-1,2.3c0,0.9,0.3,1.7,1,2.3s1.4,0.9,2.3,0.9c0.9,0,1.6-0.3,2.2-0.9S-188.3,22.3-188.3,21.4z"/>
	<path d="M-183.4,16.6h2v9.7h-2V16.6z"/>
	<path d="M-178.4,11.1h2v9.8l4-4.2h2.6l-4.2,4.5l4.2,5.2h-2.5l-4.2-5.1v5.1h-2V11.1z"/>
	<path d="M-158.6,21.8h-8.2c0.2,1,0.6,1.7,1.2,2.2s1.3,0.7,2.1,0.7c1.2,0,2.1-0.5,2.9-1.4l1.5,1.1c-1.1,1.4-2.6,2.2-4.5,2.2
		c-1.4,0-2.6-0.5-3.6-1.5s-1.5-2.2-1.5-3.7c0-1.4,0.5-2.6,1.5-3.6s2.2-1.5,3.6-1.5c1.4,0,2.6,0.5,3.6,1.5S-158.6,20.2-158.6,21.8z
		 M-166.7,20.2h5.9c-0.7-1.3-1.6-2-2.9-2C-165.1,18.2-166.1,18.9-166.7,20.2z"/>
</g>
<g>
	<path d="M42.7,32.9c-0.1,0-0.1,0-0.2,0l-1.2-5.8c-0.1-0.3-0.4-0.6-0.7-0.6h-1.3c-0.4,0-0.7,0.3-0.7,0.7s0.3,0.7,0.7,0.7H40l0.6,2.9
		H27.9c-0.3,0-0.6,0.2-0.7,0.5L26.8,33c-2.6,0.3-4.7,2.5-4.7,5.2c0,2.9,2.4,5.3,5.3,5.3c2.7,0,5-2.1,5.2-4.8l5.3-2.4
		c-0.2,0.6-0.4,1.3-0.4,2c0,2.9,2.4,5.3,5.3,5.3c2.9,0,5.3-2.4,5.3-5.3C48,35.3,45.6,32.9,42.7,32.9L42.7,32.9z M40.9,32.3l0.2,0.8
		l-8.6,4C32,35,30.3,33.4,28.2,33l0.2-0.7H40.9z M27.3,42c-2.1,0-3.8-1.7-3.8-3.8c0-2.1,1.7-3.8,3.8-3.8c2.1,0,3.8,1.7,3.8,3.8
		C31.1,40.3,29.4,42,27.3,42L27.3,42z M42.7,42c-2.1,0-3.8-1.7-3.8-3.8c0-2.1,1.7-3.8,3.8-3.8c2.1,0,3.8,1.7,3.8,3.8
		C46.5,40.3,44.8,42,42.7,42L42.7,42z M42.7,42"/>
	<path d="M29.5,28.6h-2.3c-0.4,0-0.7,0.3-0.7,0.7c0,0.4,0.3,0.7,0.7,0.7h2.3c0.4,0,0.7-0.3,0.7-0.7C30.2,29,29.9,28.6,29.5,28.6
		L29.5,28.6z M29.5,28.6"/>
</g>
</svg>
