<?xml version="1.0" standalone="no"?>
<!DOCTYPE svg PUBLIC "-//W3C//DTD SVG 20010904//EN"
 "http://www.w3.org/TR/2001/REC-SVG-20010904/DTD/svg10.dtd">
<svg version="1.0" xmlns="http://www.w3.org/2000/svg"
 width="928.000000pt" height="928.000000pt" viewBox="0 0 928.000000 928.000000"
 preserveAspectRatio="xMidYMid meet">
<metadata>
Created by potrace 1.11, written by Peter Selinger 2001-2013
</metadata>
<g transform="translate(0.000000,928.000000) scale(0.100000,-0.100000)"
fill="#000000" stroke="none">
<path d="M6287 7484 c-3 -3 -68 -7 -144 -8 -112 -2 -145 -6 -178 -22 -81 -39
-133 -124 -129 -209 4 -80 16 -108 67 -163 51 -53 112 -69 261 -68 144 1 138
4 149 -79 3 -22 12 -71 20 -110 8 -38 18 -86 21 -105 3 -19 10 -50 15 -68 5
-18 10 -35 10 -37 -1 -6 12 -82 17 -110 3 -11 9 -42 15 -70 6 -27 13 -63 15
-80 4 -26 9 -50 20 -90 1 -5 5 -28 9 -50 4 -22 10 -58 15 -80 5 -22 7 -41 4
-44 -2 -2 -920 -5 -2038 -5 -1119 -1 -2037 -4 -2041 -8 -4 -4 -13 -4 -20 -2
-7 3 -16 0 -20 -5 -3 -6 -10 -9 -14 -7 -4 3 -28 -14 -54 -38 -38 -35 -51 -56
-73 -122 -15 -43 -29 -86 -32 -94 -3 -8 -6 -19 -7 -25 -2 -5 -24 -77 -49 -160
-26 -82 -49 -159 -51 -169 -7 -30 -18 -36 -71 -42 -40 -5 -129 -23 -234 -49
-37 -9 -179 -64 -217 -83 -23 -12 -49 -22 -58 -22 -8 0 -15 -4 -15 -10 0 -5
-4 -10 -10 -10 -12 0 -94 -48 -175 -103 -122 -83 -250 -200 -345 -317 -25 -30
-48 -56 -52 -58 -5 -2 -8 -9 -8 -15 0 -7 -10 -23 -23 -37 -13 -14 -26 -32 -30
-40 -4 -8 -18 -33 -31 -55 -94 -157 -195 -424 -212 -560 -2 -16 -6 -52 -10
-80 -13 -90 -18 -281 -10 -360 12 -110 16 -134 26 -180 7 -27 14 -61 16 -75 8
-41 72 -226 94 -272 11 -23 20 -48 20 -55 0 -7 5 -13 10 -13 6 0 10 -5 10 -10
0 -6 18 -40 40 -76 22 -36 40 -70 40 -75 0 -5 5 -9 11 -9 5 0 8 -4 5 -9 -4 -5
-2 -11 2 -13 4 -1 33 -37 64 -78 81 -107 224 -252 303 -308 6 -4 28 -20 50
-37 65 -49 174 -114 262 -156 86 -41 263 -104 322 -114 19 -3 37 -7 40 -9 3
-2 24 -7 46 -11 22 -3 56 -9 75 -12 52 -10 397 -9 460 0 136 20 396 95 431
124 8 7 21 13 27 13 17 0 197 98 247 135 15 11 55 40 89 65 112 83 261 241
359 381 48 70 162 279 151 279 -4 0 -2 6 4 13 23 28 95 266 108 357 2 19 6 44
9 55 2 11 4 34 4 51 1 28 7 34 49 52 43 19 97 43 287 132 39 18 95 44 125 58
30 14 57 26 60 27 3 0 49 22 103 48 54 26 100 47 102 47 2 0 65 29 140 65 76
36 139 65 140 65 2 0 52 23 112 51 199 94 265 123 276 121 4 -1 7 3 7 8 0 6 4
10 9 10 4 0 39 14 77 32 38 17 71 32 74 33 3 1 28 13 57 27 29 14 54 23 57 21
3 -3 -2 -22 -10 -42 -22 -51 -64 -206 -70 -255 -3 -22 -7 -47 -10 -54 -22 -68
-22 -485 0 -521 3 -4 7 -27 10 -51 3 -25 10 -60 15 -78 5 -18 10 -33 10 -35 0
-4 8 -29 41 -127 54 -161 152 -344 247 -461 96 -119 251 -275 300 -303 10 -5
24 -16 32 -24 55 -54 361 -221 434 -236 6 -2 21 -6 32 -10 101 -38 262 -72
390 -82 103 -8 306 -3 380 10 113 21 160 31 248 57 56 17 106 34 112 39 5 4
21 11 35 15 35 11 147 66 195 96 22 13 52 31 67 38 15 8 36 22 46 31 9 9 31
25 47 36 17 10 41 28 55 39 44 36 235 229 265 269 17 21 35 44 40 50 56 60
235 407 235 454 0 10 5 23 12 30 7 7 9 12 5 12 -3 0 -2 12 4 26 15 41 47 192
56 264 10 85 9 330 -1 400 -4 30 -10 67 -11 82 -7 54 -45 197 -73 279 -44 125
-168 368 -193 377 -5 2 -9 8 -9 13 0 33 -242 296 -340 370 -25 18 -50 38 -56
44 -6 5 -27 19 -47 30 -20 11 -37 23 -37 27 0 5 -7 8 -15 8 -8 0 -15 5 -15 10
0 6 -6 10 -14 10 -8 0 -22 8 -32 18 -10 9 -19 16 -21 14 -2 -1 -33 13 -71 32
-127 63 -299 118 -437 140 -16 3 -45 7 -64 11 -32 5 -169 14 -240 15 -19 0
-32 3 -28 6 3 3 2 16 -3 28 -4 13 -11 40 -15 62 -4 21 -8 44 -9 49 -2 6 -6 28
-10 50 -4 22 -12 54 -16 70 -5 17 -11 44 -14 60 -3 17 -7 39 -9 50 -3 11 -17
76 -31 145 -14 69 -28 134 -30 145 -38 180 -47 221 -50 241 -3 13 -7 32 -10
42 -3 9 -8 29 -11 45 -3 15 -7 37 -10 50 -12 57 -66 314 -70 332 -2 11 -6 29
-8 40 -6 24 -48 222 -53 250 -2 11 -7 34 -11 50 -3 17 -7 37 -8 45 -14 99 -42
164 -92 211 -56 53 -101 67 -219 66 -55 0 -105 2 -111 6 -6 4 -13 4 -16 1z
m287 -1862 c4 -7 56 -227 56 -237 0 -2 -21 -13 -47 -25 -27 -12 -60 -28 -75
-36 -16 -8 -28 -12 -28 -7 0 4 -4 3 -8 -2 -7 -11 -18 -16 -122 -63 -36 -16
-95 -44 -133 -61 -37 -17 -97 -45 -135 -62 -156 -72 -331 -153 -392 -181 -36
-17 -92 -43 -125 -58 -134 -61 -175 -80 -397 -184 -40 -18 -93 -43 -118 -54
-25 -11 -92 -42 -150 -69 -58 -28 -163 -76 -235 -109 -71 -32 -133 -63 -137
-69 -4 -5 -8 -6 -8 -2 0 5 -17 -1 -37 -12 -21 -11 -63 -31 -93 -44 -30 -14
-90 -41 -132 -61 -43 -20 -113 -52 -155 -72 -85 -40 -126 -56 -132 -54 -2 1
-7 -2 -10 -7 -3 -4 -23 -16 -43 -25 l-37 -17 -11 42 c-22 92 -80 256 -116 332
-42 89 -162 276 -221 345 -72 84 -224 231 -275 265 -9 6 -42 29 -75 52 -88 62
-248 149 -265 145 -5 -1 -8 3 -8 10 0 6 -3 8 -6 5 -4 -3 -16 -2 -26 4 -31 17
-178 68 -178 63 0 -3 -6 -2 -12 3 -7 4 -24 9 -37 11 -14 2 -32 7 -42 13 -10 5
-27 9 -38 9 -12 0 -21 6 -21 13 0 12 41 158 55 195 3 9 409 12 1984 12 1089 0
1982 -4 1985 -8z m-4189 -656 c134 -17 280 -61 405 -122 49 -23 134 -77 138
-86 2 -5 8 -8 14 -8 26 0 188 -154 263 -251 116 -149 218 -384 230 -529 0 -9
3 -20 6 -25 13 -22 17 -231 6 -305 -4 -30 -10 -74 -12 -98 -3 -24 -12 -59 -20
-78 -8 -19 -12 -34 -10 -34 9 0 -46 -141 -82 -210 -67 -129 -103 -178 -228
-314 -33 -36 -157 -133 -201 -159 -62 -35 -124 -67 -128 -65 -2 2 -12 -4 -22
-13 -18 -14 -129 -56 -170 -64 -11 -2 -19 -4 -19 -5 0 -2 -62 -15 -125 -27
-14 -2 -86 -6 -160 -7 -156 -3 -262 12 -389 55 -47 16 -90 31 -96 33 -28 9
-51 20 -64 30 -7 5 -18 11 -25 12 -7 1 -39 19 -71 39 -251 160 -421 371 -519
643 -14 39 -23 72 -20 72 3 0 2 6 -3 13 -8 13 -9 14 -18 72 -4 22 -10 56 -14
75 -9 44 -7 269 3 335 9 56 33 162 43 185 3 8 7 17 8 20 18 69 81 195 143 288
47 70 187 224 245 270 97 76 236 154 340 191 52 19 105 33 109 29 2 -1 12 3
23 9 54 29 288 45 420 29z m4895 0 c68 -8 110 -16 163 -31 26 -8 48 -14 50
-14 1 0 11 -3 22 -6 121 -40 264 -116 374 -199 55 -42 206 -204 250 -270 86
-126 152 -280 187 -431 14 -60 19 -134 18 -255 -1 -140 -7 -207 -25 -275 -6
-22 -11 -41 -10 -42 2 -7 -62 -169 -85 -215 -28 -55 -98 -168 -130 -209 -52
-65 -199 -200 -269 -247 -112 -74 -276 -151 -358 -167 -10 -3 -27 -7 -38 -10
-10 -4 -31 -8 -47 -10 -15 -2 -27 -4 -27 -5 0 -5 -67 -11 -180 -14 -111 -3
-247 9 -310 28 -5 2 -23 6 -40 10 -16 4 -37 10 -45 13 -8 4 -17 7 -20 8 -45
12 -181 75 -250 116 -162 96 -350 300 -439 476 -35 70 -80 180 -85 208 -2 11
-9 39 -15 63 -42 156 -42 427 0 558 5 17 12 41 14 54 12 62 111 281 147 325 4
5 28 37 53 70 25 33 71 86 102 117 66 69 208 180 217 171 3 -3 6 -2 6 4 0 8
131 78 195 104 18 7 121 41 135 44 3 1 16 5 30 8 39 10 90 18 160 24 36 3 66
6 67 7 4 3 133 -3 183 -8z"/>
<path d="M2186 6802 c-3 -2 -10 -5 -18 -6 -59 -10 -118 -58 -151 -121 -53
-105 -8 -246 98 -303 46 -24 55 -25 283 -26 116 -1 212 -5 212 -9 0 -5 6 -5
13 0 17 10 147 11 147 0 0 -4 6 -5 12 -1 7 5 62 9 123 9 118 1 147 10 206 62
100 89 92 265 -16 347 -64 49 -66 50 -498 51 -224 0 -409 -1 -411 -3z"/>
</g>
</svg>
